<svg width="26" height="26" viewBox="0 0 26 26" fill="none" xmlns="http://www.w3.org/2000/svg">
<path d="M24.5294 0.039978H1.47068C1.09125 0.039978 0.727361 0.190706 0.459064 0.459003C0.190767 0.7273 0.0400391 1.09119 0.0400391 1.47062V24.5297C0.0401345 24.9091 0.190904 25.2729 0.459191 25.5411C0.727478 25.8093 1.09131 25.96 1.47068 25.96H13.8846V15.9225H10.5067V12.0107H13.8846V9.12566C13.8846 5.77766 15.9294 3.95498 18.9159 3.95498C20.3466 3.95498 21.576 4.06118 21.9345 4.10906V7.6079L19.8631 7.60898C18.2388 7.60898 17.9245 8.38082 17.9245 9.51338V12.0111H21.7981L21.2937 15.9228H17.9245V25.96H24.5298C24.9091 25.9599 25.2729 25.8091 25.5411 25.5408C25.8094 25.2725 25.96 24.9087 25.96 24.5293V1.47062C25.96 1.09119 25.8093 0.7273 25.541 0.459003C25.2727 0.190706 24.9088 0.039978 24.5294 0.039978Z" fill="white" fill-opacity="0.85"/>
</svg>
