<svg width="28" height="24" viewBox="0 0 28 24" fill="none" xmlns="http://www.w3.org/2000/svg">
<path d="M27.86 3.40321C26.8221 3.86303 25.7211 4.1647 24.5937 4.29817C25.7812 3.58768 26.6698 2.46966 27.0939 1.15249C25.9778 1.81509 24.7564 2.28167 23.4828 2.53201C22.9506 1.96444 22.3076 1.51221 21.5935 1.20332C20.8795 0.894438 20.1096 0.735491 19.3316 0.736331C16.191 0.736331 13.6443 3.28225 13.6443 6.42361C13.6443 6.86893 13.6947 7.30345 13.7919 7.71997C9.06512 7.48273 4.87472 5.21833 2.0696 1.77709C1.56382 2.64507 1.29805 3.63198 1.29956 4.63657C1.29881 5.57294 1.52937 6.49498 1.97076 7.32079C2.41214 8.1466 3.05068 8.85059 3.82964 9.37021C2.92665 9.34153 2.04356 9.09764 1.25384 8.65885C1.25312 8.68261 1.25312 8.70601 1.25312 8.73049C1.25312 11.4852 3.21332 13.7838 5.81468 14.3069C4.97705 14.5336 4.09881 14.5669 3.24644 14.4041C3.97004 16.6631 6.07028 18.3079 8.55896 18.354C6.54437 19.935 4.05662 20.7925 1.49576 20.7887C1.03676 20.7887 0.584236 20.7621 0.138916 20.7091C2.73932 22.38 5.76577 23.2668 8.85668 23.2637C19.3176 23.2637 25.038 14.5981 25.038 7.08349C25.038 6.83725 25.0322 6.59137 25.0214 6.34693C26.1354 5.54265 27.0967 4.54574 27.86 3.40321Z" fill="white" fill-opacity="0.85"/>
</svg>
