<svg width="100" height="91" viewBox="0 0 100 91" fill="none" xmlns="http://www.w3.org/2000/svg">
<path d="M4.91317 65.481C10.5514 55.7372 16.1349 45.9661 21.8006 36.2223C26.3714 28.3944 36.2794 28.4218 40.8776 36.2496C46.5432 45.9661 52.1814 55.7372 57.765 65.5084C61.4052 71.913 58.504 79.5493 51.8256 81.5199C49.9918 82.0673 48.377 81.9031 46.7348 80.6167C42.1366 77.0312 37.3742 73.5826 32.7213 69.9971C31.6265 69.176 30.9148 69.2034 29.8747 70.0518C25.2218 73.6099 20.4594 77.0586 15.8339 80.6988C14.2738 81.9031 12.741 82.0947 10.9893 81.602C6.47327 80.4525 3.29832 76.1006 3.32569 71.1193C3.21621 69.0665 3.90047 67.2327 4.91317 65.481Z" fill="#009BC0"/>
<path d="M56.5059 9.509C63.02 20.7308 69.6162 31.8978 75.9387 43.2017C80.4821 51.3854 85.3814 59.3774 89.8975 67.5611C92.9356 73.0625 90.4997 79.2756 85.1625 81.5473C80.6738 83.4632 74.8166 81.383 72.3806 77.168C65.5654 65.3168 58.6134 53.575 51.853 41.669C47.1179 33.321 42.246 25.0826 37.5384 16.7347C33.8981 10.1933 39.8101 1.35268 46.7621 2.91278C51.9077 2.06431 54.2889 5.73192 56.5059 9.509Z" fill="#1B3854"/>
</svg>
